<?xml version="1.0" encoding="UTF-8"?>
<svg width="512px" height="408px" viewBox="0 0 512 408" version="1.1" xmlns="http://www.w3.org/2000/svg" xmlns:xlink="http://www.w3.org/1999/xlink">
    <!-- Generator: Sketch 52.6 (67491) - http://www.bohemiancoding.com/sketch -->
    <title>Group</title>
    <desc>Created with Sketch.</desc>
    <defs>
        <path d="M459.455859,126.096632 C447.587126,86.4107139 428.634322,37.9334732 391.251655,16.6569094 C354.749531,-6.09619664 303.096187,0.299589699 262.543825,8.74612918 C185.543172,24.7830187 109.312832,49.2279961 34.5628807,73.5383928 C18.1132771,78.888295 0.321711898,92.3566163 0.00384516213,111.378633 C-0.311458133,130.357072 19.6321161,140.422425 36.4482918,139.503431 C79.2910883,137.168136 121.642986,127.938465 164.325567,123.552417 C184.255042,121.504227 235.077832,116.085112 276.018555,118.501155 C292.563006,119.362472 314.840593,121.518326 340.05973,126.599067 C391.859191,137.030992 437.696087,156.309353 474.998005,183.084498 C470.226159,163.930464 465.081332,144.909729 459.455859,126.096632 Z" id="path-1"></path>
        <linearGradient x1="50%" y1="0%" x2="50%" y2="100%" id="linearGradient-3">
            <stop stop-color="#00C6FB" offset="0%"></stop>
            <stop stop-color="#005BEA" offset="100%"></stop>
        </linearGradient>
        <path d="M161.952834,201.443375 C153.967714,157.914858 145.794181,113.958246 136.153078,70.4002498 C94.2472194,30.5489895 42.1516811,10.5169765 0.999474294,0.465722733 C25.1317118,35.6284487 47.7720264,90.7693554 56.2185659,111.114108 C72.670733,150.739786 84.7073721,192.382892 103.035978,231.175451 C110.230277,246.401011 128.575545,259.15285 145.114869,249.842431 C161.697772,240.512786 165.077669,218.455654 161.952834,201.443375 Z" id="path-4"></path>
    </defs>
    <g id="Page-1" stroke="none" stroke-width="1" fill="none" fill-rule="evenodd">
        <g id="Group" transform="translate(0.000000, -1.000000)">
            <g id="atomate_logo" transform="translate(0.000000, 0.268828)"></g>
            <g id="Rectangle">
                <mask id="mask-2" fill="white">
                    <use xlink:href="#path-1"></use>
                </mask>
                <use id="Mask" fill="#006DF0" xlink:href="#path-1"></use>
                <rect stroke="#979797" fill="url(#linearGradient-3)" fill-rule="nonzero" mask="url(#mask-2)" x="-48.5" y="-86.5" width="610" height="582"></rect>
            </g>
            <g id="Rectangle" transform="translate(349.000000, 156.000000)">
                <mask id="mask-5" fill="white">
                    <use xlink:href="#path-4"></use>
                </mask>
                <use id="Mask" fill="#006DF0" xlink:href="#path-4"></use>
                <rect stroke="#979797" fill="url(#linearGradient-3)" fill-rule="nonzero" mask="url(#mask-5)" x="-397.5" y="-242.5" width="610" height="582"></rect>
            </g>
        </g>
    </g>
</svg>